<svg xmlns="http://www.w3.org/2000/svg" width="16" height="16" viewBox="0 0 16 16"><g transform="translate(11481 10959)"><rect width="16" height="16" transform="translate(-11481 -10959)" fill="#142850"/><g transform="translate(-11477.9 -10957.4)"><path d="M111.43-290.886h1.639v7.447a3.166,3.166,0,0,1-.989,2.5,3.852,3.852,0,0,1-2.653.877q-.4,0-1.064-.07a10.2,10.2,0,0,1-1.113-.17v-1.564h.091q.339.116.84.257a3.762,3.762,0,0,0,1.022.141,3.454,3.454,0,0,0,1.213-.174,1.354,1.354,0,0,0,.666-.5,1.853,1.853,0,0,0,.286-.811,8.748,8.748,0,0,0,.062-1.109Z" transform="translate(-103.259 292.824)" fill="#d9e1e7"/><path d="M115.268-318.754h-1.64l.007,5.488h1.632Z" transform="translate(-109.4 319.655)" fill="#d9e1e7" fill-rule="evenodd"/><path d="M7.627-341.414H1.587v3.476H6.773v1.457H1.587v3.167H0v-9.557H7.627Z" transform="translate(0 342.875)" fill="#d9e1e7"/><path d="M78.925-210.393v1.457l4.69-.006V-210.4Z" transform="translate(-75.988 215.33)" fill="#d9e1e7" fill-rule="evenodd"/><path d="M219.572-342.974v1.457l1.64-.007v-1.454Z" transform="translate(-211.402 342.978)" fill="#15ded5" fill-rule="evenodd"/></g></g></svg>